<svg width="14" height="14" viewBox="0 0 14 14" fill="none" xmlns="http://www.w3.org/2000/svg">
<path d="M10.2037 3.22929C9.34235 3.09036 8.48277 3.27427 7.75466 3.74814C7.97185 3.27094 8.31174 2.83934 8.77138 2.45886C9.31894 2.00561 9.83847 1.79905 9.84271 1.79738C10.0577 1.71426 10.1647 1.47254 10.0815 1.25751C9.99843 1.04251 9.75679 0.935538 9.54166 1.01869C9.47587 1.04412 8.44178 1.45529 7.62508 2.41519C7.59446 2.26409 7.55172 2.112 7.49386 1.96123C7.00791 0.695324 5.6729 0.0648877 5.61633 0.0386651C5.5139 -0.00877625 5.39662 -0.0127137 5.29124 0.0277002C5.18589 0.0681689 5.10137 0.149571 5.05701 0.25334C5.03249 0.310735 4.46226 1.67251 4.94821 2.93841C4.99202 3.05249 5.04277 3.16132 5.0988 3.26508C4.67664 3.17173 4.2367 3.1582 3.79628 3.22926C1.86494 3.5409 0.539481 5.405 0.841629 7.3848C1.05669 8.79401 1.37108 10.0044 1.77621 10.9822C2.23567 12.0913 2.81598 12.9067 3.50102 13.406C4.04344 13.8012 4.64765 14.0001 5.30335 14C5.48472 14 5.67014 13.9848 5.85917 13.9543C6.29538 13.8839 6.67751 13.724 7 13.4776C7.32249 13.724 7.70465 13.884 8.14084 13.9543C9.01302 14.095 9.80648 13.9105 10.499 13.406C11.184 12.9068 11.7643 12.0913 12.2238 10.9822C12.6289 10.0043 12.9433 8.79398 13.1584 7.3848C13.4605 5.405 12.135 3.5409 10.2037 3.22929ZM5.68261 1.04458C6.02818 1.28368 6.49655 1.69271 6.71448 2.2604C6.93104 2.82452 6.85607 3.4446 6.75949 3.85505C6.41395 3.61599 5.94558 3.20695 5.72765 2.63924C5.51106 2.07514 5.58603 1.4551 5.68261 1.04458ZM12.3331 7.25885C11.9088 10.0394 11.1046 11.9317 10.0073 12.7312C9.49427 13.1051 8.92722 13.2356 8.27376 13.1301C7.87328 13.0655 7.55694 12.9023 7.30658 12.6313C7.22756 12.5458 7.11641 12.4972 6.99995 12.4972C6.88349 12.4972 6.77234 12.5458 6.69332 12.6313C6.44299 12.9023 6.12662 13.0655 5.72614 13.1301C5.07268 13.2354 4.50566 13.1051 3.99258 12.7312C2.89533 11.9317 2.09113 10.0394 1.66681 7.25885C1.43354 5.73028 2.44845 4.29236 3.92917 4.05349C4.07125 4.03054 4.21335 4.01922 4.35439 4.01922C4.93082 4.01922 5.48989 4.20861 5.96258 4.56979C6.57333 5.03646 7.42648 5.03646 8.03726 4.56979C8.62564 4.12023 9.34784 3.93681 10.0707 4.05349H10.0707C11.5515 4.29239 12.5664 5.73031 12.3331 7.25885Z" fill="#F4A17B"/>
</svg>
