<svg width="23" height="23" viewBox="0 0 23 23" fill="none" xmlns="http://www.w3.org/2000/svg">
<g clip-path="url(#clip0)">
<path d="M22.6403 4.73369C22.3317 4.35195 21.8732 4.13304 21.3823 4.13304H3.85144L3.69489 3.01108C3.58403 2.2166 2.89547 1.61743 2.09321 1.61743H0.718746C0.321818 1.61743 0 1.93925 0 2.33618C0 2.7331 0.321818 3.05492 0.718746 3.05492H2.09321C2.18234 3.05492 2.25888 3.1215 2.27115 3.20977L4.21127 17.1143C4.32213 17.9088 5.01069 18.508 5.81295 18.508H6.59229C6.51251 18.7329 6.46867 18.9747 6.46867 19.2267C6.46867 20.4156 7.43596 21.3829 8.6249 21.3829C9.81384 21.3829 10.7811 20.4156 10.7811 19.2267C10.7811 18.9747 10.7373 18.7329 10.6575 18.508H14.4985C14.4187 18.7329 14.3749 18.9747 14.3749 19.2267C14.3749 20.4156 15.3422 21.3829 16.5311 21.3829C17.72 21.3829 18.6873 20.4156 18.6873 19.2267C18.6873 18.9747 18.6435 18.7329 18.5637 18.508H20.1249C20.5218 18.508 20.8436 18.1861 20.8436 17.7892C20.8436 17.3923 20.5218 17.0705 20.1249 17.0705H5.81299C5.72387 17.0705 5.64732 17.0039 5.63506 16.9156L5.45609 15.633H19.611C20.3683 15.633 21.0333 15.0955 21.1924 14.3546L22.9637 6.08915C23.0666 5.60935 22.9487 5.1153 22.6403 4.73369ZM9.3437 19.2267C9.3437 19.623 9.02125 19.9454 8.62495 19.9454C8.22865 19.9454 7.9062 19.623 7.9062 19.2267C7.9062 18.8304 8.22865 18.508 8.62495 18.508C9.02125 18.508 9.3437 18.8304 9.3437 19.2267ZM17.2499 19.2267C17.2499 19.623 16.9275 19.9454 16.5312 19.9454C16.1349 19.9454 15.8124 19.623 15.8124 19.2267C15.8124 18.8304 16.1349 18.508 16.5312 18.508C16.9275 18.508 17.2499 18.8304 17.2499 19.2267ZM21.5581 5.78782L19.7869 14.0531C19.7692 14.1356 19.6952 14.1954 19.611 14.1954H5.25547L4.05202 5.57049H21.3822C21.4534 5.57049 21.4976 5.60679 21.5223 5.63724C21.5468 5.66765 21.573 5.71846 21.5581 5.78782Z" fill="white"/>
</g>
<defs>
<clipPath id="clip0">
<rect width="23" height="23" fill="white"/>
</clipPath>
</defs>
</svg>
