<svg width="30" height="43" viewBox="0 0 30 43" fill="none" xmlns="http://www.w3.org/2000/svg">
<path d="M28.1541 20.8559C28.1541 21.1218 28.117 21.3848 28.0768 21.6478C27.9659 22.3436 27.7592 23.0139 27.4507 23.6588C26.7721 25.0701 25.7511 26.2211 24.3475 27.081C23.4961 27.6015 22.5677 27.9578 21.559 28.1388C21.0283 28.2349 20.4917 28.2914 19.9519 28.3283C19.5107 28.3593 19.0666 28.3736 18.6224 28.3821C17.9282 28.3933 17.2311 28.3905 16.537 28.3933C16.4784 28.3933 16.4229 28.3877 16.3673 28.3848C16.2841 28.2745 16.2563 28.153 16.2194 28.0341C16.1886 27.9324 16.1699 27.8276 16.1731 27.7201C16.1854 27.146 16.1886 26.5691 16.2008 25.9949C16.2131 25.4519 16.3026 24.9202 16.4445 24.3941C16.9227 22.6462 17.919 21.1925 19.449 20.0583C20.9543 18.944 22.685 18.3671 24.6191 18.2991C25.7387 18.2595 26.8584 18.3048 27.9782 18.3189C28.0152 18.3189 28.0554 18.3217 28.0925 18.3331C28.1141 18.3415 28.1417 18.3671 28.1478 18.3868C28.1602 18.4292 28.1633 18.4745 28.1633 18.5197C28.1602 19.2975 28.157 20.0752 28.1541 20.8559ZM13.258 28.0341C13.221 28.153 13.1933 28.2745 13.1099 28.3848C13.0544 28.3877 12.9989 28.3933 12.9404 28.3933C12.2463 28.3905 11.5492 28.3933 10.855 28.3821C10.4109 28.3736 9.96669 28.3593 9.52558 28.3283C8.9857 28.2914 8.44905 28.2349 7.91841 28.1388C6.90966 27.9578 5.98122 27.6015 5.12989 27.081C3.72631 26.2211 2.70527 25.0701 2.02671 23.6588C1.71815 23.0139 1.51152 22.3436 1.40053 21.6478C1.36037 21.3848 1.32344 21.1218 1.32344 20.8559C1.32036 20.0752 1.31717 19.2975 1.31409 18.5197C1.31409 18.4745 1.31717 18.4292 1.32956 18.3868C1.33569 18.3671 1.36345 18.3415 1.38506 18.3331C1.42203 18.3217 1.46215 18.3189 1.49923 18.3189C2.61897 18.3048 3.7387 18.2595 4.85844 18.2991C6.79255 18.3671 8.5231 18.944 10.0283 20.0583C11.5584 21.1925 12.5547 22.6462 13.0328 24.3941C13.1748 24.9202 13.2642 25.4519 13.2765 25.9949C13.2889 26.5691 13.292 27.146 13.3043 27.7201C13.3073 27.8276 13.2889 27.9324 13.258 28.0341ZM29.3756 17.906C29.1874 17.3997 28.7062 17.131 28.2157 17.1282C28.188 17.1282 28.157 17.1282 28.1294 17.1254C27.676 17.1168 27.2225 17.1056 26.769 17.097C26.5561 17.0914 26.3434 17.0858 26.1367 17.0801C25.8127 17.0801 25.4949 17.083 25.1741 17.0801C24.7609 17.0773 24.3444 17.1084 23.9312 17.1424C20.5502 17.4308 17.6877 19.2778 16.1577 21.8119C16.1113 21.8882 16.0651 21.9675 16.0189 22.0438C15.9973 22.0749 15.9603 22.0918 15.9508 22.0749C15.9416 22.0608 15.9263 22.0466 15.9263 22.0325C15.9047 21.6449 15.8863 21.2546 15.8676 20.8643C15.8399 20.2732 15.8153 19.6821 15.769 19.0882C15.7536 18.8874 15.7505 18.6837 15.7474 18.4801C15.7442 18.3557 15.769 18.2341 15.806 18.1124C15.8739 17.8918 16.0065 17.7137 16.2039 17.5722C16.3336 17.4789 16.4784 17.4082 16.6328 17.3517C16.7468 17.3092 16.8672 17.2724 16.9844 17.2357C17.5149 17.0688 18.027 16.8651 18.5143 16.6078C19.9611 15.8413 20.9267 14.7241 21.4264 13.2675C21.5682 12.8546 21.6638 12.4303 21.7287 12.0005C21.8396 11.2425 21.8551 10.4845 21.7996 9.72083C21.7719 9.38424 21.7472 9.05058 21.707 8.71679C21.6515 8.27562 21.5774 7.83997 21.4788 7.40455C21.2843 6.53617 21.0068 5.69052 20.6212 4.87595C20.0536 3.67109 19.2763 2.59071 18.2922 1.63477C17.9714 1.32643 17.6259 1.04365 17.2465 0.79756C16.7499 0.480783 16.2163 0.240444 15.6302 0.107478C15.3372 0.0396165 15.0379 0.00279157 14.7387 0C14.4395 0.00279157 14.1403 0.0396165 13.8472 0.107478C13.2612 0.240444 12.7275 0.480783 12.2308 0.79756C11.8515 1.04365 11.506 1.32643 11.1852 1.63477C10.2011 2.59071 9.42376 3.67109 8.85619 4.87595C8.47065 5.69052 8.19293 6.53617 7.99869 7.40455C7.9 7.83997 7.82595 8.27562 7.77035 8.71679C7.73019 9.05058 7.70565 9.38424 7.67777 9.72083C7.62228 10.4845 7.63772 11.2425 7.74874 12.0005C7.81355 12.4303 7.90921 12.8546 8.05114 13.2675C8.55083 14.7241 9.51637 15.8413 10.963 16.6078C11.4505 16.8651 11.9624 17.0688 12.4931 17.2357C12.6102 17.2724 12.7305 17.3092 12.8447 17.3517C12.9989 17.4082 13.1439 17.4789 13.2735 17.5722C13.4709 17.7137 13.6036 17.8918 13.6714 18.1124C13.7083 18.2341 13.7332 18.3557 13.7299 18.4801C13.7269 18.6837 13.7238 18.8874 13.7083 19.0882C13.6622 19.6821 13.6375 20.2732 13.6096 20.8643C13.5912 21.2546 13.5727 21.6449 13.5511 22.0325C13.5511 22.0466 13.5356 22.0608 13.5264 22.0749C13.5172 22.0918 13.4801 22.0749 13.4585 22.0438C13.4122 21.9675 13.366 21.8882 13.3197 21.8119C11.7897 19.2778 8.92716 17.4308 5.54635 17.1424C5.13297 17.1084 4.7165 17.0773 4.30323 17.0801C3.98228 17.083 3.66465 17.0801 3.3408 17.0801C3.13416 17.0858 2.92126 17.0914 2.70835 17.097C2.25495 17.1056 1.80152 17.1168 1.34798 17.1254C1.32036 17.1282 1.2894 17.1282 1.26167 17.1282C0.771162 17.131 0.290002 17.3997 0.101778 17.906C0.034035 18.0814 0 18.2652 0 18.4518C0.00308088 19.1957 -0.00304393 19.9396 0.00616247 20.6834C0.0185585 21.331 0.10486 21.9701 0.274526 22.6009C0.801973 24.5835 1.90638 26.2382 3.61837 27.5421C4.65485 28.334 5.83008 28.8911 7.14112 29.205C7.79808 29.3635 8.46441 29.4426 9.13684 29.502C9.69524 29.5472 10.2566 29.5699 10.815 29.5727C11.105 29.5756 11.3948 29.5812 11.6848 29.5897C11.7311 29.5897 11.7774 29.601 11.8237 29.6095C11.8299 29.6124 11.8391 29.6208 11.8391 29.6264C11.8421 29.6349 11.8391 29.6491 11.8329 29.6519C11.8052 29.6745 11.7742 29.6973 11.7403 29.7141C11.6016 29.7736 11.4627 29.8329 11.3209 29.8923C10.8797 30.0762 10.4664 30.3024 10.1024 30.5994C9.6088 31.0095 9.2757 31.5073 9.11231 32.0984C9.01665 32.452 8.97649 32.814 8.99813 33.1789C9.01357 33.3994 9.03199 33.62 9.07215 33.8378C9.12456 34.1263 9.16153 34.4148 9.20473 34.706C9.25102 35.0284 9.29734 35.3538 9.34363 35.679C9.39604 36.0468 9.44845 36.4172 9.49782 36.7849C9.5441 37.1101 9.5872 37.4355 9.63348 37.7579C9.68285 38.0915 9.73218 38.4253 9.78154 38.7591C9.84639 39.2143 9.9112 39.6697 9.97589 40.1279C10.0499 40.6257 10.124 41.1264 10.198 41.6269C10.2319 41.8447 10.2659 42.0625 10.3029 42.2831C10.3245 42.416 10.3769 42.5377 10.454 42.6536C10.5527 42.8007 10.6946 42.9024 10.8766 42.9562C11.108 43.0213 11.3363 43.0099 11.5615 42.9478C11.8545 42.8629 12.0334 42.6819 12.1044 42.4104C12.1415 42.2718 12.1507 42.1303 12.1415 41.9889C12.1105 41.5109 12.0828 41.0329 12.0519 40.5578C12.0273 40.1336 11.9995 39.7093 11.9717 39.2851C11.9347 38.7363 11.8977 38.1906 11.8607 37.6418C11.8576 37.5967 11.8515 37.5541 11.8484 37.5089C11.8174 37.0678 11.7866 36.6265 11.7589 36.1852C11.7434 35.99 11.7281 35.7949 11.7187 35.6027C11.7095 35.3792 11.6971 35.1587 11.6971 34.9381C11.6971 34.7316 11.7619 34.5364 11.8792 34.3582C12.1044 34.016 12.5301 33.9141 12.8848 33.9934C13.1131 34.0414 13.2796 34.1687 13.3938 34.3582C13.4864 34.5137 13.5419 34.6835 13.5541 34.8616C13.5727 35.0654 13.5881 35.2689 13.5943 35.4726C13.6159 36.0835 13.6375 36.6916 13.6559 37.3025C13.6744 37.8342 13.693 38.3659 13.7083 38.8949C13.7362 39.7179 13.7609 40.5409 13.7917 41.3639C13.801 41.6382 13.8164 41.9126 13.8287 42.1869C13.8349 42.3029 13.8533 42.416 13.8996 42.5235C13.9983 42.7412 14.165 42.8884 14.4148 42.9562C14.5228 42.9846 14.6308 42.9987 14.7387 42.9959C14.8467 42.9987 14.9545 42.9846 15.0626 42.9562C15.3124 42.8884 15.479 42.7412 15.5777 42.5235C15.624 42.416 15.6424 42.3029 15.6487 42.1869C15.661 41.9126 15.6765 41.6382 15.6857 41.3639C15.7165 40.5409 15.7413 39.7179 15.769 38.8949C15.7845 38.3659 15.8029 37.8342 15.8215 37.3025C15.8399 36.6916 15.8615 36.0835 15.8831 35.4726C15.8892 35.2689 15.9047 35.0654 15.9232 34.8616C15.9355 34.6835 15.9912 34.5137 16.0837 34.3582C16.1978 34.1687 16.3644 34.0414 16.5926 33.9934C16.9473 33.9141 17.3731 34.016 17.5982 34.3582C17.7154 34.5364 17.7801 34.7316 17.7801 34.9381C17.7801 35.1587 17.7678 35.3792 17.7586 35.6027C17.7494 35.7949 17.734 35.99 17.7185 36.1852C17.6908 36.6265 17.6599 37.0678 17.629 37.5089C17.6259 37.5541 17.6198 37.5967 17.6167 37.6418C17.5798 38.1906 17.5427 38.7363 17.5057 39.2851C17.478 39.7093 17.4501 40.1336 17.4255 40.5578C17.3946 41.0329 17.3669 41.5109 17.336 41.9889C17.3267 42.1303 17.3361 42.2718 17.3731 42.4104C17.444 42.6819 17.623 42.8629 17.9159 42.9478C18.1411 43.0099 18.3695 43.0213 18.6008 42.9562C18.7827 42.9024 18.9245 42.8007 19.0234 42.6536C19.1005 42.5377 19.1528 42.416 19.1744 42.2831C19.2115 42.0625 19.2455 41.8447 19.2794 41.6269C19.3534 41.1264 19.4274 40.6257 19.5015 40.1279C19.5663 39.6697 19.631 39.2143 19.6958 38.7591C19.745 38.4253 19.7945 38.0915 19.8439 37.7579C19.8902 37.4355 19.9333 37.1101 19.9796 36.7849C20.0289 36.4172 20.0813 36.0468 20.1338 35.679C20.1802 35.3538 20.2264 35.0284 20.2726 34.706C20.3158 34.4148 20.3528 34.1263 20.4052 33.8378C20.4454 33.62 20.4638 33.3994 20.4794 33.1789C20.5009 32.814 20.4609 32.452 20.3652 32.0984C20.2018 31.5073 19.8686 31.0095 19.375 30.5994C19.011 30.3024 18.5977 30.0762 18.1564 29.8923C18.0146 29.8329 17.8758 29.7736 17.737 29.7141C17.7031 29.6973 17.6722 29.6745 17.6446 29.6519C17.6383 29.6491 17.6353 29.6349 17.6383 29.6264C17.6383 29.6208 17.6475 29.6124 17.6538 29.6095C17.7 29.601 17.7462 29.5897 17.7925 29.5897C18.0825 29.5812 18.3724 29.5756 18.6625 29.5727C19.2208 29.5699 19.7821 29.5472 20.3405 29.502C21.013 29.4426 21.6791 29.3635 22.3363 29.205C23.6473 28.8911 24.8225 28.334 25.859 27.5421C27.571 26.2382 28.6754 24.5835 29.2028 22.6009C29.3724 21.9701 29.4588 21.331 29.4712 20.6834C29.4804 19.9396 29.4743 19.1957 29.4774 18.4518C29.4774 18.2652 29.4435 18.0814 29.3756 17.906Z" fill="black"/>
</svg>
